<mxfile host="app.diagrams.net" modified="2022-11-13T10:41:17.795Z" agent="5.0 (Macintosh; Intel Mac OS X 10_15_7) AppleWebKit/537.36 (KHTML, like Gecko) Chrome/107.0.0.0 Safari/537.36" etag="anEvXfX4tdFedwWK-8sH" version="20.5.3" type="github" pages="2">
  <diagram id="1UyiZmf48p8MatWu2e_s" name="fs">
    <mxGraphModel dx="2066" dy="1154" grid="1" gridSize="10" guides="1" tooltips="1" connect="1" arrows="1" fold="1" page="1" pageScale="1" pageWidth="2339" pageHeight="3300" math="0" shadow="0">
      <root>
        <mxCell id="0" />
        <mxCell id="1" parent="0" />
        <mxCell id="5ulxxzKyCWh2ly2rTKkh-1" value="FS 模块" style="rounded=0;whiteSpace=wrap;html=1;fillColor=#f8cecc;strokeColor=#b85450;" parent="1" vertex="1">
          <mxGeometry x="520" y="80" width="80" height="40" as="geometry" />
        </mxCell>
        <mxCell id="5ulxxzKyCWh2ly2rTKkh-2" value="基本操作类" style="rounded=1;whiteSpace=wrap;html=1;fillColor=#ffe6cc;strokeColor=#d79b00;" parent="1" vertex="1">
          <mxGeometry x="320" y="150" width="80" height="40" as="geometry" />
        </mxCell>
        <mxCell id="5ulxxzKyCWh2ly2rTKkh-3" value="常用方法" style="rounded=1;whiteSpace=wrap;html=1;fillColor=#ffe6cc;strokeColor=#d79b00;" parent="1" vertex="1">
          <mxGeometry x="715" y="150" width="80" height="40" as="geometry" />
        </mxCell>
        <mxCell id="5ulxxzKyCWh2ly2rTKkh-35" value="" style="edgeStyle=orthogonalEdgeStyle;rounded=0;orthogonalLoop=1;jettySize=auto;html=1;" parent="1" source="5ulxxzKyCWh2ly2rTKkh-4" target="5ulxxzKyCWh2ly2rTKkh-16" edge="1">
          <mxGeometry relative="1" as="geometry" />
        </mxCell>
        <mxCell id="5ulxxzKyCWh2ly2rTKkh-4" value="stat" style="text;html=1;strokeColor=#6c8ebf;fillColor=#dae8fc;align=center;verticalAlign=middle;whiteSpace=wrap;rounded=0;" parent="1" vertex="1">
          <mxGeometry x="165" y="230" width="60" height="30" as="geometry" />
        </mxCell>
        <mxCell id="5ulxxzKyCWh2ly2rTKkh-36" value="" style="edgeStyle=orthogonalEdgeStyle;rounded=0;orthogonalLoop=1;jettySize=auto;html=1;" parent="1" source="5ulxxzKyCWh2ly2rTKkh-5" target="5ulxxzKyCWh2ly2rTKkh-17" edge="1">
          <mxGeometry relative="1" as="geometry" />
        </mxCell>
        <mxCell id="5ulxxzKyCWh2ly2rTKkh-5" value="write" style="text;html=1;strokeColor=#6c8ebf;fillColor=#dae8fc;align=center;verticalAlign=middle;whiteSpace=wrap;rounded=0;" parent="1" vertex="1">
          <mxGeometry x="260" y="230" width="60" height="30" as="geometry" />
        </mxCell>
        <mxCell id="5ulxxzKyCWh2ly2rTKkh-37" value="" style="edgeStyle=orthogonalEdgeStyle;rounded=0;orthogonalLoop=1;jettySize=auto;html=1;" parent="1" source="5ulxxzKyCWh2ly2rTKkh-6" target="5ulxxzKyCWh2ly2rTKkh-18" edge="1">
          <mxGeometry relative="1" as="geometry" />
        </mxCell>
        <mxCell id="5ulxxzKyCWh2ly2rTKkh-6" value="read" style="text;html=1;strokeColor=#6c8ebf;fillColor=#dae8fc;align=center;verticalAlign=middle;whiteSpace=wrap;rounded=0;" parent="1" vertex="1">
          <mxGeometry x="380" y="230" width="60" height="30" as="geometry" />
        </mxCell>
        <mxCell id="5ulxxzKyCWh2ly2rTKkh-38" value="" style="edgeStyle=orthogonalEdgeStyle;rounded=0;orthogonalLoop=1;jettySize=auto;html=1;" parent="1" source="5ulxxzKyCWh2ly2rTKkh-7" target="5ulxxzKyCWh2ly2rTKkh-19" edge="1">
          <mxGeometry relative="1" as="geometry" />
        </mxCell>
        <mxCell id="5ulxxzKyCWh2ly2rTKkh-7" value="watcher" style="text;html=1;strokeColor=#6c8ebf;fillColor=#dae8fc;align=center;verticalAlign=middle;whiteSpace=wrap;rounded=0;" parent="1" vertex="1">
          <mxGeometry x="490" y="230" width="60" height="30" as="geometry" />
        </mxCell>
        <mxCell id="5ulxxzKyCWh2ly2rTKkh-8" value="权限操作" style="text;html=1;strokeColor=#6c8ebf;fillColor=#dae8fc;align=center;verticalAlign=middle;whiteSpace=wrap;rounded=0;" parent="1" vertex="1">
          <mxGeometry x="600" y="230" width="60" height="30" as="geometry" />
        </mxCell>
        <mxCell id="5ulxxzKyCWh2ly2rTKkh-11" value="文件增删改查" style="text;html=1;strokeColor=#6c8ebf;fillColor=#dae8fc;align=center;verticalAlign=middle;whiteSpace=wrap;rounded=0;" parent="1" vertex="1">
          <mxGeometry x="770" y="230" width="90" height="30" as="geometry" />
        </mxCell>
        <mxCell id="5ulxxzKyCWh2ly2rTKkh-12" value="工具方法" style="text;html=1;strokeColor=#6c8ebf;fillColor=#dae8fc;align=center;verticalAlign=middle;whiteSpace=wrap;rounded=0;" parent="1" vertex="1">
          <mxGeometry x="960" y="230" width="90" height="30" as="geometry" />
        </mxCell>
        <mxCell id="5ulxxzKyCWh2ly2rTKkh-16" value="stat()" style="text;html=1;align=center;verticalAlign=middle;whiteSpace=wrap;rounded=0;fillColor=#f5f5f5;fontColor=#333333;strokeColor=#666666;" parent="1" vertex="1">
          <mxGeometry x="170" y="290" width="50" height="30" as="geometry" />
        </mxCell>
        <mxCell id="5ulxxzKyCWh2ly2rTKkh-17" value="createWriteStream" style="text;html=1;align=center;verticalAlign=middle;whiteSpace=wrap;rounded=0;fillColor=#f5f5f5;fontColor=#333333;strokeColor=#666666;" parent="1" vertex="1">
          <mxGeometry x="235" y="290" width="110" height="30" as="geometry" />
        </mxCell>
        <mxCell id="5ulxxzKyCWh2ly2rTKkh-18" value="createReadStream" style="text;html=1;strokeColor=#666666;fillColor=#f5f5f5;align=center;verticalAlign=middle;whiteSpace=wrap;rounded=0;fontColor=#333333;" parent="1" vertex="1">
          <mxGeometry x="355" y="290" width="110" height="30" as="geometry" />
        </mxCell>
        <mxCell id="5ulxxzKyCWh2ly2rTKkh-19" value="watch()" style="text;html=1;strokeColor=#666666;fillColor=#f5f5f5;align=center;verticalAlign=middle;whiteSpace=wrap;rounded=0;fontColor=#333333;" parent="1" vertex="1">
          <mxGeometry x="490" y="290" width="60" height="30" as="geometry" />
        </mxCell>
        <mxCell id="5ulxxzKyCWh2ly2rTKkh-20" value="chmod" style="text;html=1;strokeColor=#666666;fillColor=#f5f5f5;align=center;verticalAlign=middle;whiteSpace=wrap;rounded=0;fontColor=#333333;" parent="1" vertex="1">
          <mxGeometry x="580" y="290" width="50" height="30" as="geometry" />
        </mxCell>
        <mxCell id="5ulxxzKyCWh2ly2rTKkh-21" value="chgrp" style="text;html=1;strokeColor=#666666;fillColor=#f5f5f5;align=center;verticalAlign=middle;whiteSpace=wrap;rounded=0;fontColor=#333333;" parent="1" vertex="1">
          <mxGeometry x="640" y="290" width="45" height="30" as="geometry" />
        </mxCell>
        <mxCell id="5ulxxzKyCWh2ly2rTKkh-41" value="" style="edgeStyle=orthogonalEdgeStyle;rounded=0;orthogonalLoop=1;jettySize=auto;html=1;" parent="1" source="5ulxxzKyCWh2ly2rTKkh-22" target="5ulxxzKyCWh2ly2rTKkh-28" edge="1">
          <mxGeometry relative="1" as="geometry" />
        </mxCell>
        <mxCell id="5ulxxzKyCWh2ly2rTKkh-22" value="打开" style="text;html=1;strokeColor=#666666;fillColor=#f5f5f5;align=center;verticalAlign=middle;whiteSpace=wrap;rounded=0;fontColor=#333333;" parent="1" vertex="1">
          <mxGeometry x="710" y="290" width="45" height="30" as="geometry" />
        </mxCell>
        <mxCell id="5ulxxzKyCWh2ly2rTKkh-42" value="" style="edgeStyle=orthogonalEdgeStyle;rounded=0;orthogonalLoop=1;jettySize=auto;html=1;" parent="1" source="5ulxxzKyCWh2ly2rTKkh-24" target="5ulxxzKyCWh2ly2rTKkh-29" edge="1">
          <mxGeometry relative="1" as="geometry" />
        </mxCell>
        <mxCell id="5ulxxzKyCWh2ly2rTKkh-24" value="读取" style="text;html=1;strokeColor=#666666;fillColor=#f5f5f5;align=center;verticalAlign=middle;whiteSpace=wrap;rounded=0;fontColor=#333333;" parent="1" vertex="1">
          <mxGeometry x="782.5" y="290" width="45" height="30" as="geometry" />
        </mxCell>
        <mxCell id="5ulxxzKyCWh2ly2rTKkh-43" value="" style="edgeStyle=orthogonalEdgeStyle;rounded=0;orthogonalLoop=1;jettySize=auto;html=1;" parent="1" source="5ulxxzKyCWh2ly2rTKkh-26" target="5ulxxzKyCWh2ly2rTKkh-30" edge="1">
          <mxGeometry relative="1" as="geometry" />
        </mxCell>
        <mxCell id="5ulxxzKyCWh2ly2rTKkh-26" value="写入" style="text;html=1;strokeColor=#666666;fillColor=#f5f5f5;align=center;verticalAlign=middle;whiteSpace=wrap;rounded=0;fontColor=#333333;" parent="1" vertex="1">
          <mxGeometry x="862.5" y="290" width="45" height="30" as="geometry" />
        </mxCell>
        <mxCell id="5ulxxzKyCWh2ly2rTKkh-27" value="删除" style="text;html=1;strokeColor=#666666;fillColor=#f5f5f5;align=center;verticalAlign=middle;whiteSpace=wrap;rounded=0;fontColor=#333333;" parent="1" vertex="1">
          <mxGeometry x="930" y="290" width="45" height="30" as="geometry" />
        </mxCell>
        <mxCell id="5ulxxzKyCWh2ly2rTKkh-28" value="open/close" style="text;html=1;strokeColor=#666666;fillColor=#f5f5f5;align=center;verticalAlign=middle;whiteSpace=wrap;rounded=0;fontColor=#333333;" parent="1" vertex="1">
          <mxGeometry x="700" y="350" width="65" height="30" as="geometry" />
        </mxCell>
        <mxCell id="5ulxxzKyCWh2ly2rTKkh-29" value="readdir/&lt;br&gt;readfile/&lt;br&gt;readlink" style="text;html=1;strokeColor=#666666;fillColor=#f5f5f5;align=center;verticalAlign=middle;whiteSpace=wrap;rounded=0;fontColor=#333333;" parent="1" vertex="1">
          <mxGeometry x="775" y="340" width="60" height="50" as="geometry" />
        </mxCell>
        <mxCell id="5ulxxzKyCWh2ly2rTKkh-30" value="write/&lt;br&gt;writefile/&lt;br&gt;appendfile" style="text;html=1;strokeColor=#666666;fillColor=#f5f5f5;align=center;verticalAlign=middle;whiteSpace=wrap;rounded=0;fontColor=#333333;" parent="1" vertex="1">
          <mxGeometry x="850" y="340" width="70" height="50" as="geometry" />
        </mxCell>
        <mxCell id="5ulxxzKyCWh2ly2rTKkh-32" value="" style="shape=curlyBracket;whiteSpace=wrap;html=1;rounded=1;flipH=1;direction=south;size=0;" parent="1" vertex="1">
          <mxGeometry x="360" y="130" width="400" height="20" as="geometry" />
        </mxCell>
        <mxCell id="5ulxxzKyCWh2ly2rTKkh-33" value="" style="shape=curlyBracket;whiteSpace=wrap;html=1;rounded=1;flipH=1;direction=south;" parent="1" vertex="1">
          <mxGeometry x="630" y="200" width="380" height="20" as="geometry" />
        </mxCell>
        <mxCell id="5ulxxzKyCWh2ly2rTKkh-34" value="" style="shape=curlyBracket;whiteSpace=wrap;html=1;rounded=1;flipH=1;direction=south;" parent="1" vertex="1">
          <mxGeometry x="200" y="210" width="330" height="20" as="geometry" />
        </mxCell>
        <mxCell id="5ulxxzKyCWh2ly2rTKkh-39" value="" style="shape=curlyBracket;whiteSpace=wrap;html=1;rounded=1;flipH=1;direction=south;" parent="1" vertex="1">
          <mxGeometry x="600" y="260" width="60" height="20" as="geometry" />
        </mxCell>
        <mxCell id="5ulxxzKyCWh2ly2rTKkh-40" value="" style="shape=curlyBracket;whiteSpace=wrap;html=1;rounded=1;flipH=1;direction=south;" parent="1" vertex="1">
          <mxGeometry x="730" y="260" width="220" height="20" as="geometry" />
        </mxCell>
        <mxCell id="ALxeVtdW5fMbDAjtFhvk-1" value="" style="shape=table;html=1;whiteSpace=wrap;startSize=0;container=1;collapsible=0;childLayout=tableLayout;" parent="1" vertex="1">
          <mxGeometry x="270" y="480" width="600" height="160" as="geometry" />
        </mxCell>
        <mxCell id="ALxeVtdW5fMbDAjtFhvk-38" style="shape=tableRow;horizontal=0;startSize=0;swimlaneHead=0;swimlaneBody=0;top=0;left=0;bottom=0;right=0;collapsible=0;dropTarget=0;fillColor=none;points=[[0,0.5],[1,0.5]];portConstraint=eastwest;" parent="ALxeVtdW5fMbDAjtFhvk-1" vertex="1">
          <mxGeometry width="600" height="40" as="geometry" />
        </mxCell>
        <mxCell id="ALxeVtdW5fMbDAjtFhvk-39" value="权限位" style="shape=partialRectangle;html=1;whiteSpace=wrap;connectable=0;fillColor=none;top=0;left=0;bottom=0;right=0;overflow=hidden;" parent="ALxeVtdW5fMbDAjtFhvk-38" vertex="1">
          <mxGeometry width="60" height="40" as="geometry">
            <mxRectangle width="60" height="40" as="alternateBounds" />
          </mxGeometry>
        </mxCell>
        <mxCell id="ALxeVtdW5fMbDAjtFhvk-40" value="文件所有者" style="shape=partialRectangle;html=1;whiteSpace=wrap;connectable=0;fillColor=none;top=0;left=0;bottom=0;right=0;overflow=hidden;rowspan=1;colspan=3;" parent="ALxeVtdW5fMbDAjtFhvk-38" vertex="1">
          <mxGeometry x="60" width="180" height="40" as="geometry">
            <mxRectangle width="60" height="40" as="alternateBounds" />
          </mxGeometry>
        </mxCell>
        <mxCell id="ALxeVtdW5fMbDAjtFhvk-41" style="shape=partialRectangle;html=1;whiteSpace=wrap;connectable=0;fillColor=none;top=0;left=0;bottom=0;right=0;overflow=hidden;" parent="ALxeVtdW5fMbDAjtFhvk-38" vertex="1" visible="0">
          <mxGeometry x="120" width="60" height="40" as="geometry">
            <mxRectangle width="60" height="40" as="alternateBounds" />
          </mxGeometry>
        </mxCell>
        <mxCell id="ALxeVtdW5fMbDAjtFhvk-42" style="shape=partialRectangle;html=1;whiteSpace=wrap;connectable=0;fillColor=none;top=0;left=0;bottom=0;right=0;overflow=hidden;" parent="ALxeVtdW5fMbDAjtFhvk-38" vertex="1" visible="0">
          <mxGeometry x="180" width="60" height="40" as="geometry">
            <mxRectangle width="60" height="40" as="alternateBounds" />
          </mxGeometry>
        </mxCell>
        <mxCell id="ALxeVtdW5fMbDAjtFhvk-43" value="文件所属组" style="shape=partialRectangle;html=1;whiteSpace=wrap;connectable=0;fillColor=none;top=0;left=0;bottom=0;right=0;overflow=hidden;rowspan=1;colspan=3;" parent="ALxeVtdW5fMbDAjtFhvk-38" vertex="1">
          <mxGeometry x="240" width="180" height="40" as="geometry">
            <mxRectangle width="60" height="40" as="alternateBounds" />
          </mxGeometry>
        </mxCell>
        <mxCell id="ALxeVtdW5fMbDAjtFhvk-44" style="shape=partialRectangle;html=1;whiteSpace=wrap;connectable=0;fillColor=none;top=0;left=0;bottom=0;right=0;overflow=hidden;" parent="ALxeVtdW5fMbDAjtFhvk-38" vertex="1" visible="0">
          <mxGeometry x="300" width="60" height="40" as="geometry">
            <mxRectangle width="60" height="40" as="alternateBounds" />
          </mxGeometry>
        </mxCell>
        <mxCell id="ALxeVtdW5fMbDAjtFhvk-45" style="shape=partialRectangle;html=1;whiteSpace=wrap;connectable=0;fillColor=none;top=0;left=0;bottom=0;right=0;overflow=hidden;" parent="ALxeVtdW5fMbDAjtFhvk-38" vertex="1" visible="0">
          <mxGeometry x="360" width="60" height="40" as="geometry">
            <mxRectangle width="60" height="40" as="alternateBounds" />
          </mxGeometry>
        </mxCell>
        <mxCell id="ALxeVtdW5fMbDAjtFhvk-46" value="其他用户" style="shape=partialRectangle;html=1;whiteSpace=wrap;connectable=0;fillColor=none;top=0;left=0;bottom=0;right=0;overflow=hidden;rowspan=1;colspan=3;" parent="ALxeVtdW5fMbDAjtFhvk-38" vertex="1">
          <mxGeometry x="420" width="180" height="40" as="geometry">
            <mxRectangle width="60" height="40" as="alternateBounds" />
          </mxGeometry>
        </mxCell>
        <mxCell id="ALxeVtdW5fMbDAjtFhvk-47" style="shape=partialRectangle;html=1;whiteSpace=wrap;connectable=0;fillColor=none;top=0;left=0;bottom=0;right=0;overflow=hidden;" parent="ALxeVtdW5fMbDAjtFhvk-38" vertex="1" visible="0">
          <mxGeometry x="480" width="60" height="40" as="geometry">
            <mxRectangle width="60" height="40" as="alternateBounds" />
          </mxGeometry>
        </mxCell>
        <mxCell id="ALxeVtdW5fMbDAjtFhvk-48" style="shape=partialRectangle;html=1;whiteSpace=wrap;connectable=0;fillColor=none;top=0;left=0;bottom=0;right=0;overflow=hidden;" parent="ALxeVtdW5fMbDAjtFhvk-38" vertex="1" visible="0">
          <mxGeometry x="540" width="60" height="40" as="geometry">
            <mxRectangle width="60" height="40" as="alternateBounds" />
          </mxGeometry>
        </mxCell>
        <mxCell id="ALxeVtdW5fMbDAjtFhvk-2" value="" style="shape=tableRow;horizontal=0;startSize=0;swimlaneHead=0;swimlaneBody=0;top=0;left=0;bottom=0;right=0;collapsible=0;dropTarget=0;fillColor=none;points=[[0,0.5],[1,0.5]];portConstraint=eastwest;" parent="ALxeVtdW5fMbDAjtFhvk-1" vertex="1">
          <mxGeometry y="40" width="600" height="40" as="geometry" />
        </mxCell>
        <mxCell id="ALxeVtdW5fMbDAjtFhvk-3" value="权限项" style="shape=partialRectangle;html=1;whiteSpace=wrap;connectable=0;fillColor=none;top=0;left=0;bottom=0;right=0;overflow=hidden;" parent="ALxeVtdW5fMbDAjtFhvk-2" vertex="1">
          <mxGeometry width="60" height="40" as="geometry">
            <mxRectangle width="60" height="40" as="alternateBounds" />
          </mxGeometry>
        </mxCell>
        <mxCell id="ALxeVtdW5fMbDAjtFhvk-4" value="读" style="shape=partialRectangle;html=1;whiteSpace=wrap;connectable=0;fillColor=none;top=0;left=0;bottom=0;right=0;overflow=hidden;" parent="ALxeVtdW5fMbDAjtFhvk-2" vertex="1">
          <mxGeometry x="60" width="60" height="40" as="geometry">
            <mxRectangle width="60" height="40" as="alternateBounds" />
          </mxGeometry>
        </mxCell>
        <mxCell id="ALxeVtdW5fMbDAjtFhvk-5" value="写" style="shape=partialRectangle;html=1;whiteSpace=wrap;connectable=0;fillColor=none;top=0;left=0;bottom=0;right=0;overflow=hidden;" parent="ALxeVtdW5fMbDAjtFhvk-2" vertex="1">
          <mxGeometry x="120" width="60" height="40" as="geometry">
            <mxRectangle width="60" height="40" as="alternateBounds" />
          </mxGeometry>
        </mxCell>
        <mxCell id="ALxeVtdW5fMbDAjtFhvk-14" value="执行" style="shape=partialRectangle;html=1;whiteSpace=wrap;connectable=0;fillColor=none;top=0;left=0;bottom=0;right=0;overflow=hidden;" parent="ALxeVtdW5fMbDAjtFhvk-2" vertex="1">
          <mxGeometry x="180" width="60" height="40" as="geometry">
            <mxRectangle width="60" height="40" as="alternateBounds" />
          </mxGeometry>
        </mxCell>
        <mxCell id="ALxeVtdW5fMbDAjtFhvk-17" value="读" style="shape=partialRectangle;html=1;whiteSpace=wrap;connectable=0;fillColor=none;top=0;left=0;bottom=0;right=0;overflow=hidden;" parent="ALxeVtdW5fMbDAjtFhvk-2" vertex="1">
          <mxGeometry x="240" width="60" height="40" as="geometry">
            <mxRectangle width="60" height="40" as="alternateBounds" />
          </mxGeometry>
        </mxCell>
        <mxCell id="ALxeVtdW5fMbDAjtFhvk-20" value="写" style="shape=partialRectangle;html=1;whiteSpace=wrap;connectable=0;fillColor=none;top=0;left=0;bottom=0;right=0;overflow=hidden;" parent="ALxeVtdW5fMbDAjtFhvk-2" vertex="1">
          <mxGeometry x="300" width="60" height="40" as="geometry">
            <mxRectangle width="60" height="40" as="alternateBounds" />
          </mxGeometry>
        </mxCell>
        <mxCell id="ALxeVtdW5fMbDAjtFhvk-23" value="执行" style="shape=partialRectangle;html=1;whiteSpace=wrap;connectable=0;fillColor=none;top=0;left=0;bottom=0;right=0;overflow=hidden;" parent="ALxeVtdW5fMbDAjtFhvk-2" vertex="1">
          <mxGeometry x="360" width="60" height="40" as="geometry">
            <mxRectangle width="60" height="40" as="alternateBounds" />
          </mxGeometry>
        </mxCell>
        <mxCell id="ALxeVtdW5fMbDAjtFhvk-26" value="读" style="shape=partialRectangle;html=1;whiteSpace=wrap;connectable=0;fillColor=none;top=0;left=0;bottom=0;right=0;overflow=hidden;" parent="ALxeVtdW5fMbDAjtFhvk-2" vertex="1">
          <mxGeometry x="420" width="60" height="40" as="geometry">
            <mxRectangle width="60" height="40" as="alternateBounds" />
          </mxGeometry>
        </mxCell>
        <mxCell id="ALxeVtdW5fMbDAjtFhvk-29" value="写" style="shape=partialRectangle;html=1;whiteSpace=wrap;connectable=0;fillColor=none;top=0;left=0;bottom=0;right=0;overflow=hidden;" parent="ALxeVtdW5fMbDAjtFhvk-2" vertex="1">
          <mxGeometry x="480" width="60" height="40" as="geometry">
            <mxRectangle width="60" height="40" as="alternateBounds" />
          </mxGeometry>
        </mxCell>
        <mxCell id="ALxeVtdW5fMbDAjtFhvk-32" value="执行" style="shape=partialRectangle;html=1;whiteSpace=wrap;connectable=0;fillColor=none;top=0;left=0;bottom=0;right=0;overflow=hidden;" parent="ALxeVtdW5fMbDAjtFhvk-2" vertex="1">
          <mxGeometry x="540" width="60" height="40" as="geometry">
            <mxRectangle width="60" height="40" as="alternateBounds" />
          </mxGeometry>
        </mxCell>
        <mxCell id="ALxeVtdW5fMbDAjtFhvk-6" value="" style="shape=tableRow;horizontal=0;startSize=0;swimlaneHead=0;swimlaneBody=0;top=0;left=0;bottom=0;right=0;collapsible=0;dropTarget=0;fillColor=none;points=[[0,0.5],[1,0.5]];portConstraint=eastwest;" parent="ALxeVtdW5fMbDAjtFhvk-1" vertex="1">
          <mxGeometry y="80" width="600" height="40" as="geometry" />
        </mxCell>
        <mxCell id="ALxeVtdW5fMbDAjtFhvk-7" value="字符表示" style="shape=partialRectangle;html=1;whiteSpace=wrap;connectable=0;fillColor=none;top=0;left=0;bottom=0;right=0;overflow=hidden;" parent="ALxeVtdW5fMbDAjtFhvk-6" vertex="1">
          <mxGeometry width="60" height="40" as="geometry">
            <mxRectangle width="60" height="40" as="alternateBounds" />
          </mxGeometry>
        </mxCell>
        <mxCell id="ALxeVtdW5fMbDAjtFhvk-8" value="r" style="shape=partialRectangle;html=1;whiteSpace=wrap;connectable=0;fillColor=none;top=0;left=0;bottom=0;right=0;overflow=hidden;" parent="ALxeVtdW5fMbDAjtFhvk-6" vertex="1">
          <mxGeometry x="60" width="60" height="40" as="geometry">
            <mxRectangle width="60" height="40" as="alternateBounds" />
          </mxGeometry>
        </mxCell>
        <mxCell id="ALxeVtdW5fMbDAjtFhvk-9" value="w" style="shape=partialRectangle;html=1;whiteSpace=wrap;connectable=0;fillColor=none;top=0;left=0;bottom=0;right=0;overflow=hidden;" parent="ALxeVtdW5fMbDAjtFhvk-6" vertex="1">
          <mxGeometry x="120" width="60" height="40" as="geometry">
            <mxRectangle width="60" height="40" as="alternateBounds" />
          </mxGeometry>
        </mxCell>
        <mxCell id="ALxeVtdW5fMbDAjtFhvk-15" value="x" style="shape=partialRectangle;html=1;whiteSpace=wrap;connectable=0;fillColor=none;top=0;left=0;bottom=0;right=0;overflow=hidden;" parent="ALxeVtdW5fMbDAjtFhvk-6" vertex="1">
          <mxGeometry x="180" width="60" height="40" as="geometry">
            <mxRectangle width="60" height="40" as="alternateBounds" />
          </mxGeometry>
        </mxCell>
        <mxCell id="ALxeVtdW5fMbDAjtFhvk-18" value="r" style="shape=partialRectangle;html=1;whiteSpace=wrap;connectable=0;fillColor=none;top=0;left=0;bottom=0;right=0;overflow=hidden;" parent="ALxeVtdW5fMbDAjtFhvk-6" vertex="1">
          <mxGeometry x="240" width="60" height="40" as="geometry">
            <mxRectangle width="60" height="40" as="alternateBounds" />
          </mxGeometry>
        </mxCell>
        <mxCell id="ALxeVtdW5fMbDAjtFhvk-21" value="w" style="shape=partialRectangle;html=1;whiteSpace=wrap;connectable=0;fillColor=none;top=0;left=0;bottom=0;right=0;overflow=hidden;" parent="ALxeVtdW5fMbDAjtFhvk-6" vertex="1">
          <mxGeometry x="300" width="60" height="40" as="geometry">
            <mxRectangle width="60" height="40" as="alternateBounds" />
          </mxGeometry>
        </mxCell>
        <mxCell id="ALxeVtdW5fMbDAjtFhvk-24" value="x" style="shape=partialRectangle;html=1;whiteSpace=wrap;connectable=0;fillColor=none;top=0;left=0;bottom=0;right=0;overflow=hidden;" parent="ALxeVtdW5fMbDAjtFhvk-6" vertex="1">
          <mxGeometry x="360" width="60" height="40" as="geometry">
            <mxRectangle width="60" height="40" as="alternateBounds" />
          </mxGeometry>
        </mxCell>
        <mxCell id="ALxeVtdW5fMbDAjtFhvk-27" value="r" style="shape=partialRectangle;html=1;whiteSpace=wrap;connectable=0;fillColor=none;top=0;left=0;bottom=0;right=0;overflow=hidden;" parent="ALxeVtdW5fMbDAjtFhvk-6" vertex="1">
          <mxGeometry x="420" width="60" height="40" as="geometry">
            <mxRectangle width="60" height="40" as="alternateBounds" />
          </mxGeometry>
        </mxCell>
        <mxCell id="ALxeVtdW5fMbDAjtFhvk-30" value="w" style="shape=partialRectangle;html=1;whiteSpace=wrap;connectable=0;fillColor=none;top=0;left=0;bottom=0;right=0;overflow=hidden;" parent="ALxeVtdW5fMbDAjtFhvk-6" vertex="1">
          <mxGeometry x="480" width="60" height="40" as="geometry">
            <mxRectangle width="60" height="40" as="alternateBounds" />
          </mxGeometry>
        </mxCell>
        <mxCell id="ALxeVtdW5fMbDAjtFhvk-33" value="x" style="shape=partialRectangle;html=1;whiteSpace=wrap;connectable=0;fillColor=none;top=0;left=0;bottom=0;right=0;overflow=hidden;" parent="ALxeVtdW5fMbDAjtFhvk-6" vertex="1">
          <mxGeometry x="540" width="60" height="40" as="geometry">
            <mxRectangle width="60" height="40" as="alternateBounds" />
          </mxGeometry>
        </mxCell>
        <mxCell id="ALxeVtdW5fMbDAjtFhvk-10" value="" style="shape=tableRow;horizontal=0;startSize=0;swimlaneHead=0;swimlaneBody=0;top=0;left=0;bottom=0;right=0;collapsible=0;dropTarget=0;fillColor=none;points=[[0,0.5],[1,0.5]];portConstraint=eastwest;" parent="ALxeVtdW5fMbDAjtFhvk-1" vertex="1">
          <mxGeometry y="120" width="600" height="40" as="geometry" />
        </mxCell>
        <mxCell id="ALxeVtdW5fMbDAjtFhvk-11" value="数字表示" style="shape=partialRectangle;html=1;whiteSpace=wrap;connectable=0;fillColor=none;top=0;left=0;bottom=0;right=0;overflow=hidden;" parent="ALxeVtdW5fMbDAjtFhvk-10" vertex="1">
          <mxGeometry width="60" height="40" as="geometry">
            <mxRectangle width="60" height="40" as="alternateBounds" />
          </mxGeometry>
        </mxCell>
        <mxCell id="ALxeVtdW5fMbDAjtFhvk-12" value="4" style="shape=partialRectangle;html=1;whiteSpace=wrap;connectable=0;fillColor=none;top=0;left=0;bottom=0;right=0;overflow=hidden;" parent="ALxeVtdW5fMbDAjtFhvk-10" vertex="1">
          <mxGeometry x="60" width="60" height="40" as="geometry">
            <mxRectangle width="60" height="40" as="alternateBounds" />
          </mxGeometry>
        </mxCell>
        <mxCell id="ALxeVtdW5fMbDAjtFhvk-13" value="2" style="shape=partialRectangle;html=1;whiteSpace=wrap;connectable=0;fillColor=none;top=0;left=0;bottom=0;right=0;overflow=hidden;pointerEvents=1;" parent="ALxeVtdW5fMbDAjtFhvk-10" vertex="1">
          <mxGeometry x="120" width="60" height="40" as="geometry">
            <mxRectangle width="60" height="40" as="alternateBounds" />
          </mxGeometry>
        </mxCell>
        <mxCell id="ALxeVtdW5fMbDAjtFhvk-16" value="1" style="shape=partialRectangle;html=1;whiteSpace=wrap;connectable=0;fillColor=none;top=0;left=0;bottom=0;right=0;overflow=hidden;pointerEvents=1;" parent="ALxeVtdW5fMbDAjtFhvk-10" vertex="1">
          <mxGeometry x="180" width="60" height="40" as="geometry">
            <mxRectangle width="60" height="40" as="alternateBounds" />
          </mxGeometry>
        </mxCell>
        <mxCell id="ALxeVtdW5fMbDAjtFhvk-19" value="4" style="shape=partialRectangle;html=1;whiteSpace=wrap;connectable=0;fillColor=none;top=0;left=0;bottom=0;right=0;overflow=hidden;pointerEvents=1;" parent="ALxeVtdW5fMbDAjtFhvk-10" vertex="1">
          <mxGeometry x="240" width="60" height="40" as="geometry">
            <mxRectangle width="60" height="40" as="alternateBounds" />
          </mxGeometry>
        </mxCell>
        <mxCell id="ALxeVtdW5fMbDAjtFhvk-22" value="2" style="shape=partialRectangle;html=1;whiteSpace=wrap;connectable=0;fillColor=none;top=0;left=0;bottom=0;right=0;overflow=hidden;pointerEvents=1;" parent="ALxeVtdW5fMbDAjtFhvk-10" vertex="1">
          <mxGeometry x="300" width="60" height="40" as="geometry">
            <mxRectangle width="60" height="40" as="alternateBounds" />
          </mxGeometry>
        </mxCell>
        <mxCell id="ALxeVtdW5fMbDAjtFhvk-25" value="1" style="shape=partialRectangle;html=1;whiteSpace=wrap;connectable=0;fillColor=none;top=0;left=0;bottom=0;right=0;overflow=hidden;pointerEvents=1;" parent="ALxeVtdW5fMbDAjtFhvk-10" vertex="1">
          <mxGeometry x="360" width="60" height="40" as="geometry">
            <mxRectangle width="60" height="40" as="alternateBounds" />
          </mxGeometry>
        </mxCell>
        <mxCell id="ALxeVtdW5fMbDAjtFhvk-28" value="4" style="shape=partialRectangle;html=1;whiteSpace=wrap;connectable=0;fillColor=none;top=0;left=0;bottom=0;right=0;overflow=hidden;pointerEvents=1;" parent="ALxeVtdW5fMbDAjtFhvk-10" vertex="1">
          <mxGeometry x="420" width="60" height="40" as="geometry">
            <mxRectangle width="60" height="40" as="alternateBounds" />
          </mxGeometry>
        </mxCell>
        <mxCell id="ALxeVtdW5fMbDAjtFhvk-31" value="2" style="shape=partialRectangle;html=1;whiteSpace=wrap;connectable=0;fillColor=none;top=0;left=0;bottom=0;right=0;overflow=hidden;pointerEvents=1;" parent="ALxeVtdW5fMbDAjtFhvk-10" vertex="1">
          <mxGeometry x="480" width="60" height="40" as="geometry">
            <mxRectangle width="60" height="40" as="alternateBounds" />
          </mxGeometry>
        </mxCell>
        <mxCell id="ALxeVtdW5fMbDAjtFhvk-34" value="1" style="shape=partialRectangle;html=1;whiteSpace=wrap;connectable=0;fillColor=none;top=0;left=0;bottom=0;right=0;overflow=hidden;pointerEvents=1;" parent="ALxeVtdW5fMbDAjtFhvk-10" vertex="1">
          <mxGeometry x="540" width="60" height="40" as="geometry">
            <mxRectangle width="60" height="40" as="alternateBounds" />
          </mxGeometry>
        </mxCell>
      </root>
    </mxGraphModel>
  </diagram>
  <diagram id="5ZItwI_jmS-EnFsKjRJM" name="stream">
    <mxGraphModel dx="2066" dy="1154" grid="1" gridSize="10" guides="1" tooltips="1" connect="1" arrows="1" fold="1" page="1" pageScale="1" pageWidth="1654" pageHeight="2336" math="0" shadow="0">
      <root>
        <mxCell id="0" />
        <mxCell id="1" parent="0" />
        <mxCell id="L1OVXlNvG0ZXB3cJCuw5-1" value="" style="swimlane;startSize=0;" parent="1" vertex="1">
          <mxGeometry x="120" y="600" width="480" height="400" as="geometry" />
        </mxCell>
        <mxCell id="L1OVXlNvG0ZXB3cJCuw5-3" value="可读流" style="text;html=1;strokeColor=none;fillColor=none;align=center;verticalAlign=middle;whiteSpace=wrap;rounded=0;" parent="L1OVXlNvG0ZXB3cJCuw5-1" vertex="1">
          <mxGeometry x="210" y="10" width="60" height="30" as="geometry" />
        </mxCell>
        <mxCell id="L1OVXlNvG0ZXB3cJCuw5-5" value="底层数据" style="rounded=0;whiteSpace=wrap;html=1;" parent="L1OVXlNvG0ZXB3cJCuw5-1" vertex="1">
          <mxGeometry x="60" y="80" width="100" height="200" as="geometry" />
        </mxCell>
        <mxCell id="L1OVXlNvG0ZXB3cJCuw5-9" value="链表结构" style="rounded=0;whiteSpace=wrap;html=1;" parent="L1OVXlNvG0ZXB3cJCuw5-1" vertex="1">
          <mxGeometry x="310" y="80" width="100" height="200" as="geometry" />
        </mxCell>
        <mxCell id="L1OVXlNvG0ZXB3cJCuw5-10" value="缓存区" style="text;html=1;align=center;verticalAlign=middle;resizable=0;points=[];autosize=1;strokeColor=none;fillColor=none;" parent="L1OVXlNvG0ZXB3cJCuw5-1" vertex="1">
          <mxGeometry x="330" y="50" width="60" height="30" as="geometry" />
        </mxCell>
        <mxCell id="L1OVXlNvG0ZXB3cJCuw5-11" value="" style="endArrow=classic;html=1;rounded=0;exitX=1;exitY=0.5;exitDx=0;exitDy=0;entryX=0;entryY=0.5;entryDx=0;entryDy=0;" parent="L1OVXlNvG0ZXB3cJCuw5-1" source="L1OVXlNvG0ZXB3cJCuw5-5" target="L1OVXlNvG0ZXB3cJCuw5-9" edge="1">
          <mxGeometry width="50" height="50" relative="1" as="geometry">
            <mxPoint x="680" y="400" as="sourcePoint" />
            <mxPoint x="730" y="350" as="targetPoint" />
          </mxGeometry>
        </mxCell>
        <mxCell id="L1OVXlNvG0ZXB3cJCuw5-12" value="push(data)" style="text;html=1;align=center;verticalAlign=middle;resizable=0;points=[];autosize=1;strokeColor=none;fillColor=none;" parent="L1OVXlNvG0ZXB3cJCuw5-1" vertex="1">
          <mxGeometry x="190" y="140" width="80" height="30" as="geometry" />
        </mxCell>
        <mxCell id="L1OVXlNvG0ZXB3cJCuw5-13" value="_read()" style="text;html=1;align=center;verticalAlign=middle;resizable=0;points=[];autosize=1;strokeColor=none;fillColor=none;" parent="L1OVXlNvG0ZXB3cJCuw5-1" vertex="1">
          <mxGeometry x="80" y="290" width="60" height="30" as="geometry" />
        </mxCell>
        <mxCell id="L1OVXlNvG0ZXB3cJCuw5-2" value="" style="swimlane;startSize=0;" parent="1" vertex="1">
          <mxGeometry x="760" y="600" width="240" height="400" as="geometry" />
        </mxCell>
        <mxCell id="L1OVXlNvG0ZXB3cJCuw5-15" value="应用程序" style="text;html=1;align=center;verticalAlign=middle;resizable=0;points=[];autosize=1;strokeColor=none;fillColor=none;" parent="L1OVXlNvG0ZXB3cJCuw5-2" vertex="1">
          <mxGeometry x="85" y="165" width="70" height="30" as="geometry" />
        </mxCell>
        <mxCell id="L1OVXlNvG0ZXB3cJCuw5-14" value="消费者" style="text;html=1;align=center;verticalAlign=middle;resizable=0;points=[];autosize=1;strokeColor=none;fillColor=none;" parent="1" vertex="1">
          <mxGeometry x="850" y="645" width="60" height="30" as="geometry" />
        </mxCell>
        <mxCell id="L1OVXlNvG0ZXB3cJCuw5-16" value="" style="endArrow=classic;html=1;rounded=0;entryX=1;entryY=0.25;entryDx=0;entryDy=0;exitX=0;exitY=0.25;exitDx=0;exitDy=0;" parent="1" source="L1OVXlNvG0ZXB3cJCuw5-2" target="L1OVXlNvG0ZXB3cJCuw5-1" edge="1">
          <mxGeometry width="50" height="50" relative="1" as="geometry">
            <mxPoint x="800" y="820" as="sourcePoint" />
            <mxPoint x="850" y="770" as="targetPoint" />
          </mxGeometry>
        </mxCell>
        <mxCell id="L1OVXlNvG0ZXB3cJCuw5-17" value="" style="endArrow=classic;html=1;rounded=0;entryX=1;entryY=0.5;entryDx=0;entryDy=0;exitX=0;exitY=0.5;exitDx=0;exitDy=0;" parent="1" source="L1OVXlNvG0ZXB3cJCuw5-2" target="L1OVXlNvG0ZXB3cJCuw5-1" edge="1">
          <mxGeometry width="50" height="50" relative="1" as="geometry">
            <mxPoint x="750" y="800" as="sourcePoint" />
            <mxPoint x="850" y="770" as="targetPoint" />
          </mxGeometry>
        </mxCell>
        <mxCell id="4CTpMpHcVA2BCDMt_iup-1" value="data 事件" style="text;html=1;align=center;verticalAlign=middle;resizable=0;points=[];autosize=1;strokeColor=none;fillColor=none;" vertex="1" parent="1">
          <mxGeometry x="645" y="660" width="70" height="30" as="geometry" />
        </mxCell>
        <mxCell id="4CTpMpHcVA2BCDMt_iup-2" value="readable + read" style="text;html=1;align=center;verticalAlign=middle;resizable=0;points=[];autosize=1;strokeColor=none;fillColor=none;" vertex="1" parent="1">
          <mxGeometry x="625" y="810" width="110" height="30" as="geometry" />
        </mxCell>
      </root>
    </mxGraphModel>
  </diagram>
</mxfile>
